REM GENRE Trip-Hop
REM DATE 2010
REM DISCID 7D0C6F0A
REM COMMENT "ExactAudioCopy v0.99pb3"
PERFORMER "Massive Attack"
TITLE "Heligoland"
FILE "01 - Pray for Rain.wav" WAVE
  TRACK 01 AUDIO
    TITLE "Pray for Rain"
    PERFORMER "Massive Attack"
    INDEX 01 00:00:00
FILE "02 - Babel.wav" WAVE
  TRACK 02 AUDIO
    TITLE "Babel"
    PERFORMER "Massive Attack"
    INDEX 01 00:00:00
FILE "03 - Splitting the Atom.wav" WAVE
  TRACK 03 AUDIO
    TITLE "Splitting the Atom"
    PERFORMER "Massive Attack"
    INDEX 01 00:00:00
FILE "04 - Girl I Love You.wav" WAVE
  TRACK 04 AUDIO
    TITLE "Girl I Love You"
    PERFORMER "Massive Attack"
    INDEX 01 00:00:00
FILE "05 - Psyche.wav" WAVE
  TRACK 05 AUDIO
    TITLE "Psyche"
    PERFORMER "Massive Attack"
    INDEX 01 00:00:00
FILE "06 - Flat of the Blade.wav" WAVE
  TRACK 06 AUDIO
    TITLE "Flat of the Blade"
    PERFORMER "Massive Attack"
    INDEX 01 00:00:00
FILE "07 - Paradise Circus.wav" WAVE
  TRACK 07 AUDIO
    TITLE "Paradise Circus"
    PERFORMER "Massive Attack"
    INDEX 01 00:00:00
FILE "08 - Rush Minute.wav" WAVE
  TRACK 08 AUDIO
    TITLE "Rush Minute"
    PERFORMER "Massive Attack"
    INDEX 01 00:00:00
FILE "09 - Saturday Come Slow.wav" WAVE
  TRACK 09 AUDIO
    TITLE "Saturday Come Slow"
    PERFORMER "Massive Attack"
    INDEX 01 00:00:00
FILE "10 - Atlas Air.wav" WAVE
  TRACK 10 AUDIO
    TITLE "Atlas Air"
    PERFORMER "Massive Attack"
    INDEX 01 00:00:00
